# xmcd
#
# Track frame offsets:
#	150
#	16461
#	30448
#	46698
#	63291
#	82129
#	96193
#	110069
#	130465
#	141700
#	156418
#	167952
#	182915
#	195801
#	211042
#	226408
#	242329
#	256295
#	272275
#	285573
#	303622
#	314927
#	329778
#	344204
#
# Disc length: 4772 seconds
#
# Revision: 0
# Processed by: cddbd v1.5.2PL0 Copyright (c) Steve Scherf et al.
# Submitted via: dBpowerAMP V4.0
#
DISCID=6e12a218
DTITLE=João Mineiro and Marciano - Minha Seleção
DYEAR=1900
DGENRE=
TTITLE0=01 - Se Eu Não Puder te Esquecer
TTITLE1=02 - Ainda Ontem Chorei de Saudade
TTITLE2=03 - Seu Amor Ainda é Tudo
TTITLE3=04 - Esse Meu Coração Sem Juízo
TTITLE4=05 - Distante dos Olhos
TTITLE5=06 - Benza Deus
TTITLE6=07 - Meu Desespero
TTITLE7=08 - Por Sentir Ciúmes
TTITLE8=09 - Esconda o Q Houve
TTITLE9=10 - No Mesmo Lugar
TTITLE10=11 - Whisky Com Gelo
TTITLE11=12 - Caminhão é Assim
TTITLE12=13 - Pare Com Isso
TTITLE13=14 - Papel de Amante
TTITLE14=15 - Amante, Amigos
TTITLE15=16 - Não Se Bate em Quem Se Ama
TTITLE16=17 - Te Amo, Mas Adeus
TTITLE17=18 - Um Dia Só
TTITLE18=19 - Crises de Amor
TTITLE19=20 - Medos e Beijos
TTITLE20=21 - Momentos Especiais
TTITLE21=22 - Valeu a Pena
TTITLE22=23 - Ex-Mulher
TTITLE23=24 - O Quando Te Amo
EXTD=João Mineiro e Marciano - Minha Seleção
EXTT0=
EXTT1=
EXTT2=
EXTT3=
EXTT4=
EXTT5=
EXTT6=
EXTT7=
EXTT8=
EXTT9=
EXTT10=
EXTT11=
EXTT12=
EXTT13=
EXTT14=
EXTT15=
EXTT16=
EXTT17=
EXTT18=
EXTT19=
EXTT20=
EXTT21=
EXTT22=
EXTT23=
PLAYORDER=
